<svg width="39" height="32" viewBox="0 0 39 32" fill="none" xmlns="http://www.w3.org/2000/svg">
<path fill-rule="evenodd" clip-rule="evenodd" d="M7.99562 10.5714H20.476V22.9524H12.1356C12.0802 22.9524 12.0256 22.9524 11.9718 22.9524C10.7607 22.9527 9.92676 22.953 9.15396 22.78C7.45117 22.3992 5.94671 21.4082 4.92451 19.9941C4.46058 19.3522 4.13159 18.5861 3.65377 17.4731C3.63253 17.4235 3.611 17.3734 3.58916 17.3227L3.57309 17.2852C3.33833 16.7389 3.13822 16.2732 2.99789 15.8865C2.85478 15.4921 2.72827 15.0624 2.71337 14.6027C2.65981 12.9506 3.65246 11.4436 5.19163 10.8405C5.61994 10.6727 6.06459 10.6194 6.48347 10.5951C6.89417 10.5714 7.40102 10.5714 7.99562 10.5714ZM6.6483 13.4475C6.32894 13.4659 6.24114 13.4979 6.23392 13.5008C5.82097 13.6626 5.55465 14.0669 5.56902 14.5102C5.56926 14.5179 5.57456 14.6112 5.68368 14.9119C5.79241 15.2114 5.95902 15.6008 6.21425 16.1947C6.78171 17.5154 6.98484 17.9672 7.24003 18.3203C7.85335 19.1688 8.75603 19.7634 9.7777 19.9919C10.2028 20.087 10.6981 20.0952 12.1356 20.0952H17.6189V13.4286H8.03637C7.38988 13.4286 6.96649 13.4292 6.6483 13.4475Z" fill="#FFD800"/>
<path d="M13.5238 29.7618C13.5238 28.2628 14.739 27.0476 16.238 27.0476H21.8572C23.3562 27.0476 24.5714 28.2628 24.5714 29.7618C24.5714 30.2616 24.1664 30.6667 23.6666 30.6667H14.4286C13.9289 30.6667 13.5238 30.2616 13.5238 29.7618Z" fill="#FFD800"/>
<path fill-rule="evenodd" clip-rule="evenodd" d="M31.4468 13.4475C31.1287 13.4292 30.7052 13.4286 30.0588 13.4286H20.4762V20.0952H25.9596C27.397 20.0952 27.8922 20.087 28.3174 19.9919C29.3391 19.7634 30.2418 19.1688 30.8551 18.3203C31.1102 17.9672 31.3133 17.5154 31.8808 16.1947C32.136 15.6008 32.3028 15.2114 32.4114 14.9119C32.5205 14.6112 32.5258 14.5179 32.5261 14.5102C32.5405 14.0669 32.2741 13.6626 31.8612 13.5008C31.854 13.4979 31.7662 13.4659 31.4468 13.4475ZM31.6117 10.5951C32.0306 10.6194 32.4751 10.6727 32.9034 10.8405C34.4426 11.4436 35.4352 12.9506 35.3818 14.6027C35.3668 15.0624 35.2404 15.4921 35.0973 15.8865C34.9569 16.2732 34.7568 16.7389 34.522 17.2852L34.506 17.3227C34.4841 17.3734 34.4626 17.4235 34.4414 17.4731C33.9636 18.5859 33.6346 19.3522 33.1706 19.9941C32.1484 21.4082 30.6439 22.3992 28.9412 22.78C28.1684 22.953 27.3345 22.9527 26.1233 22.9524C26.0695 22.9524 26.0149 22.9524 25.9596 22.9524H17.619V10.5714H30.0995C30.6941 10.5714 31.2009 10.5714 31.6117 10.5951Z" fill="#FFD800"/>
<path d="M12.3118 13.4286H7.09744C7.0387 13.4286 6.98169 13.4286 6.92632 13.4286C6.69977 13.0025 6.57142 12.5163 6.57142 12C6.57142 11.4838 6.69977 10.9975 6.9263 10.5714C6.96863 10.5714 7.01141 10.5714 7.05464 10.5714H12.3118C12.5383 10.9975 12.6667 11.4838 12.6667 12C12.6667 12.5163 12.5383 13.0025 12.3118 13.4286Z" fill="#FFAF00"/>
<path d="M12.8352 20.0952L14 22.873L13.8108 22.9524H11.0296C10.8027 22.9525 10.5889 22.9525 10.3861 22.9515L9.16858 20.0479C9.55956 20.0905 10.1144 20.0952 11.1951 20.0952H12.8352Z" fill="#FFAF00"/>
<path d="M25.7834 13.4286H30.9978C31.0566 13.4286 31.1136 13.4286 31.1689 13.4286C31.3955 13.0025 31.5238 12.5163 31.5238 12C31.5238 11.4838 31.3955 10.9975 31.1689 10.5714C31.1265 10.5714 31.0839 10.5714 31.0406 10.5714H25.7834C25.5569 10.9975 25.4286 11.4838 25.4286 12C25.4286 12.5163 25.5569 13.0025 25.7834 13.4286Z" fill="#EB8C00"/>
<path d="M25.26 20.0952L24.0952 22.873L24.2845 22.9524H27.0657C27.2925 22.9525 27.5063 22.9525 27.7091 22.9515L28.9266 20.0479C28.5358 20.0905 27.9808 20.0952 26.9001 20.0952H25.26Z" fill="#EB8C00"/>
<path d="M16.6624 22.2708C16.5122 20.8539 17.623 19.619 19.0479 19.619C20.4728 19.619 21.5835 20.8538 21.4333 22.2708L20.8894 27.3988C20.8072 28.1739 20.1534 28.7619 19.374 28.7619H18.7217C17.9422 28.7619 17.2885 28.1739 17.2064 27.3988L16.6624 22.2708Z" fill="#EB8C00"/>
<path d="M10.4888 19.2798C8.97731 15.3469 8.22158 13.3804 8.48451 11.7955C8.77099 10.0687 9.80884 8.55801 11.318 7.67114C12.7031 6.85715 14.818 6.85715 19.0479 6.85715C23.2779 6.85715 25.3927 6.85715 26.7779 7.67114C28.2871 8.55801 29.3249 10.0687 29.6114 11.7955C29.8743 13.3804 29.1186 15.3469 27.6071 19.2798C26.8399 21.2762 26.4564 22.2744 25.8249 23.0286C25.1337 23.8542 24.2299 24.475 23.2113 24.8241C22.2808 25.1429 21.2032 25.1429 19.0479 25.1429C16.8926 25.1429 15.815 25.1429 14.8846 24.8241C13.8659 24.475 12.9621 23.8542 12.2709 23.0286C11.6396 22.2744 11.256 21.2762 10.4888 19.2798Z" fill="#FFD800"/>
<path d="M27.2808 8.9404C27.6596 10.346 27.2637 12.1142 26.4719 15.6506L26.0963 17.3288C25.6588 19.2824 25.4401 20.2594 24.9944 21.0359C24.252 22.3287 23.0481 23.293 21.6241 23.735C20.7691 24.0005 19.7681 24.0005 17.7659 24.0005C16.0948 24.0005 15.2593 24.0005 14.5138 23.8022C13.3965 23.5052 12.3938 22.8876 11.6272 22.0296C11.829 22.4245 12.032 22.7441 12.2704 23.0289C12.9616 23.8545 13.8654 24.4754 14.8841 24.8244C15.8146 25.1432 16.8922 25.1432 19.0475 25.1432C21.2027 25.1432 22.2804 25.1432 23.2108 24.8244C24.2295 24.4754 25.1332 23.8545 25.8244 23.0289C26.4558 22.2747 26.8395 21.2765 27.6067 19.2802C29.1182 15.3472 29.8738 13.3807 29.6108 11.7959C29.3245 10.0691 28.2866 8.55833 26.7774 7.67148L26.7744 7.66965C26.99 8.06876 27.1607 8.49471 27.2808 8.9404Z" fill="#FFAF00"/>
<path d="M30.7721 8.4602C30.6665 8.86247 30.0954 8.86247 29.9898 8.4602L29.4217 6.29536C29.3847 6.15419 29.2744 6.04395 29.1333 6.00689L26.9684 5.43874C26.5661 5.33315 26.5661 4.76209 26.9684 4.65652L29.1333 4.08835C29.2744 4.05131 29.3847 3.94106 29.4217 3.79989L29.9898 1.63505C30.0954 1.23276 30.6665 1.23276 30.7721 1.63505L31.3402 3.79989C31.3772 3.94106 31.4876 4.05131 31.6287 4.08835L33.7935 4.65652C34.1958 4.76209 34.1958 5.33315 33.7935 5.43874L31.6287 6.00689C31.4876 6.04395 31.3772 6.15419 31.3402 6.29536L30.7721 8.4602Z" fill="#FEED8D"/>
<path d="M6.80693 3.23327C6.87191 2.98573 7.22333 2.98573 7.2883 3.23327L7.63794 4.56549C7.66074 4.65237 7.72858 4.72021 7.81545 4.743L9.14767 5.09264C9.39521 5.15762 9.39521 5.50904 9.14767 5.57401L7.81545 5.92365C7.72858 5.94645 7.66074 6.01429 7.63794 6.10116L7.2883 7.43338C7.22333 7.68092 6.87191 7.68092 6.80693 7.43338L6.4573 6.10116C6.4345 6.01429 6.36666 5.94645 6.27979 5.92365L4.94757 5.57401C4.70002 5.50904 4.70002 5.15762 4.94757 5.09264L6.27979 4.743C6.36666 4.72021 6.4345 4.65237 6.4573 4.56549L6.80693 3.23327Z" fill="#FEED8D"/>
<path d="M8.11535 28.9804C8.05851 29.197 7.751 29.197 7.69417 28.9804L7.38823 27.8147C7.36827 27.7387 7.30892 27.6794 7.23289 27.6594L6.06721 27.3535C5.8506 27.2966 5.8506 26.9891 6.06721 26.9323L7.23289 26.6263C7.30892 26.6063 7.36827 26.5471 7.38823 26.471L7.69417 25.3053C7.751 25.0888 8.05851 25.0888 8.11535 25.3053L8.42128 26.471C8.44124 26.5471 8.5006 26.6063 8.57662 26.6263L9.7423 26.9323C9.95891 26.9891 9.95891 27.2966 9.7423 27.3535L8.57662 27.6594C8.5006 27.6794 8.44124 27.7387 8.42128 27.8147L8.11535 28.9804Z" fill="#FEED8D"/>
<path fill-rule="evenodd" clip-rule="evenodd" d="M12.3978 9.11837C12.8123 9.51421 12.8274 10.1712 12.4316 10.5857L12.2601 10.7653C11.8771 11.1663 11.6634 11.6994 11.6634 12.2539V12.6321C11.6634 13.2052 11.1988 13.6698 10.6256 13.6698C10.0524 13.6698 9.58778 13.2052 9.58778 12.6321V12.2539C9.58778 11.1655 10.0072 10.1189 10.7589 9.33178L10.9304 9.15217C11.3263 8.73765 11.9832 8.72251 12.3978 9.11837Z" fill="#FEED8D"/>
<path d="M22.031 11.0155H22.49V15.6053H22.031V11.0155ZM16.7527 11.704H17.2117V15.6053H16.7527V11.704ZM15.1463 16.2937H15.6053V20.1951H15.1463V16.2937ZM19.7361 14.4578H20.1951V19.5066H19.7361V14.4578Z" fill="#FFAF00"/>
<path d="M21.572 11.704H22.9489C23.2014 11.704 23.4079 11.9105 23.4079 12.1629V14.4578C23.4079 14.7103 23.2014 14.9168 22.9489 14.9168H21.572C21.3196 14.9168 21.113 14.7103 21.113 14.4578V12.1629C21.113 11.9105 21.3196 11.704 21.572 11.704ZM16.2937 12.3924H17.6707C17.9231 12.3924 18.1297 12.599 18.1297 12.8514V14.4578C18.1297 14.7103 17.9231 14.9168 17.6707 14.9168H16.2937C16.0413 14.9168 15.8348 14.7103 15.8348 14.4578V12.8514C15.8348 12.599 16.0413 12.3924 16.2937 12.3924Z" fill="#FFAF00"/>
<path d="M14.6873 16.9822H16.0643C16.3167 16.9822 16.5232 17.1888 16.5232 17.4412V19.0476C16.5232 19.3001 16.3167 19.5066 16.0643 19.5066H14.6873C14.4349 19.5066 14.2283 19.3001 14.2283 19.0476V17.4412C14.2283 17.1888 14.4349 16.9822 14.6873 16.9822ZM19.2771 15.1463H20.654C20.9065 15.1463 21.113 15.3528 21.113 15.6053V18.3592C21.113 18.6116 20.9065 18.8181 20.654 18.8181H19.2771C19.0247 18.8181 18.8181 18.6116 18.8181 18.3592V15.6053C18.8181 15.3528 19.0247 15.1463 19.2771 15.1463Z" fill="#FFAF00"/>
</svg>
